<?xml version="1.0" encoding="UTF-8"?>
<!DOCTYPE svg PUBLIC "-//W3C//DTD SVG 1.1//EN" "http://www.w3.org/Graphics/SVG/1.1/DTD/svg11.dtd">
<!-- Creator: CorelDRAW -->
<svg xmlns="http://www.w3.org/2000/svg" xml:space="preserve" width="1350mm" height="1080mm" version="1.1" style="shape-rendering:geometricPrecision; text-rendering:geometricPrecision; image-rendering:optimizeQuality; fill-rule:evenodd; clip-rule:evenodd"
viewBox="0 0 135000 108000"
 xmlns:xlink="http://www.w3.org/1999/xlink"
 xmlns:xodm="http://www.corel.com/coreldraw/odm/2003">
 <defs>
  <style type="text/css">
   <![CDATA[
    .fil0 {fill:#FEFEFE}
    .fil1 {fill:#201E1E}
   ]]>
  </style>
 </defs>
 <g id="Camada_x0020_1">
  <metadata id="CorelCorpID_0Corel-Layer"/>
  <path class="fil0" d="M28978.65 68751.75c0,712.65 -49.07,5211.93 47.79,5555.77 194.57,690.72 855.07,650.04 1444.75,650.04l0 1675.83c0,297.68 59.61,493.51 200.46,663.64 156.98,189.61 353.61,284.68 551.64,305.2l167.16 0c397.62,-40.73 756.57,-366.4 756.57,-811.73l0 -1832.94 1099.76 0 0 1832.94c0,424.05 366.63,811.73 785.55,811.73 540.8,0 890.28,-348.01 890.28,-864.1l0 -1780.57c286.9,0 707.87,27.89 943.22,-77.99 235.9,-106.13 418.56,-306.5 495.1,-552.29 37.33,-119.88 54.22,-337.47 54.22,-495.67l0 -5079.86c0,-60.33 -18.22,-78.55 -78.56,-78.55l-7279.38 0c-60.34,0 -78.56,18.22 -78.56,78.55z"/>
  <path class="fil0" d="M30863.96 65426.28c-1131.08,598.49 -1911.49,1665.56 -1911.49,2985.07l7462.68 0c0,-590.56 -113.75,-1084.02 -393.89,-1569.98 -369.2,-640.45 -853.57,-1077.58 -1491.42,-1415.09 126.83,-189.41 371.17,-702.62 529.47,-963.45 68.47,-112.82 124.94,-267.24 -84.33,-267.24 -77.12,0 -131.87,132.47 -192.36,252.78 -79.17,157.46 -438.97,773.21 -462.26,873.17 -846.75,-448.05 -2400.17,-448.05 -3246.92,0l-537.46 -1007.44c-38.57,-66.58 -39.81,-118.51 -117.16,-118.51 -295.99,0 -55.45,338.05 93.69,587.12 131.44,219.51 215.92,441.17 351.45,643.57z"/>
  <path class="fil0" d="M27014.79 69406.37l0 3377.85c0,255.09 78.49,443.11 202.85,582.69 342.6,384.51 927.48,384.53 1270.12,0 127.47,-143.04 202.86,-348.53 202.86,-608.88l0 -3325.47c0,-506.47 -372.64,-890.29 -733.18,-890.29 -303.23,0 -475.77,-2.64 -727.14,267.89 -131.8,141.85 -215.51,330.96 -215.51,596.21z"/>
  <path class="fil0" d="M36703.18 69432.56l0 3273.1c0,543.32 341.74,942.66 733.18,942.66 308.28,0 474.54,3.95 727.14,-267.88 131.8,-141.84 215.51,-330.98 215.51,-596.22l0 -3377.85c0,-345.14 -157.73,-625.43 -418.07,-760.24 -600.61,-311.02 -1257.76,66.01 -1257.76,786.43z"/>
  <circle class="fil1" cx="30892.46" cy="66959.92" r="307.94"/>
  <circle class="fil1" cx="34367.32" cy="66957.41" r="307.94"/>
 </g>
</svg>
