<?xml version="1.0" encoding="UTF-8"?>
<!DOCTYPE svg PUBLIC "-//W3C//DTD SVG 1.1//EN" "http://www.w3.org/Graphics/SVG/1.1/DTD/svg11.dtd">
<!-- Creator: CorelDRAW -->
<svg xmlns="http://www.w3.org/2000/svg" xml:space="preserve" width="1350mm" height="1080mm" version="1.1" style="shape-rendering:geometricPrecision; text-rendering:geometricPrecision; image-rendering:optimizeQuality; fill-rule:evenodd; clip-rule:evenodd"
viewBox="0 0 135000 108000"
 xmlns:xlink="http://www.w3.org/1999/xlink"
 xmlns:xodm="http://www.corel.com/coreldraw/odm/2003">
 <defs>
  <style type="text/css">
   <![CDATA[
    .fil0 {fill:#FEFEFE}
   ]]>
  </style>
 </defs>
 <g id="Camada_x0020_1">
  <metadata id="CorelCorpID_0Corel-Layer"/>
  <g id="_1704284948944">
   <path class="fil0" d="M36209.66 70833.77c-96.43,-65.35 -205.78,-102.17 -305.89,-235.59 -86.43,-115.18 -139.94,-209.17 -158.76,-391.5 -18.05,-174.75 21.26,-325.64 92.05,-448.71 50.49,-87.79 186.61,-230.55 282.51,-268.14 -46.86,-116.3 -236.17,-234.76 -349.91,-281.03 -154.64,-62.92 -356.73,-84.85 -531.21,-41.39 -119.66,29.8 -381.35,154.26 -486.04,126.84 -303.31,-79.42 -561.89,-275.96 -983.01,-3.71 -447.91,289.55 -489.77,891.12 -349.56,1387.12 98.9,349.86 257.47,592.48 436.83,816.24 66.28,82.68 218.09,236.23 380.87,245.33 164.17,9.18 336.28,-96.52 500.05,-126.84 417.47,-77.29 601.69,319.38 992.84,-5.43 78.61,-65.27 211.31,-238.35 278.96,-347.34 63.24,-101.89 171.89,-296.96 200.27,-425.85z"/>
   <path class="fil0" d="M34782.23 69137.61c222.63,44.81 425.61,-150.02 509.88,-238 118.25,-123.47 220.72,-320.73 199.7,-563.06 -380.82,28.71 -746.47,380.84 -709.58,801.06z"/>
  </g>
 </g>
</svg>
